<?xml version="1.0" encoding="UTF-8" standalone="no"?>
<!-- Created with Inkscape (http://www.inkscape.org/) -->

<svg
   xmlns:dc="http://purl.org/dc/elements/1.1/"
   xmlns:cc="http://creativecommons.org/ns#"
   xmlns:rdf="http://www.w3.org/1999/02/22-rdf-syntax-ns#"
   xmlns:svg="http://www.w3.org/2000/svg"
   xmlns="http://www.w3.org/2000/svg"
   xmlns:sodipodi="http://sodipodi.sourceforge.net/DTD/sodipodi-0.dtd"
   xmlns:inkscape="http://www.inkscape.org/namespaces/inkscape"
   width="18.440784mm"
   height="26.770355mm"
   viewBox="0 0 18.440784 26.770355"
   version="1.1"
   id="svg1019"
   inkscape:version="0.92.2 (5c3e80d, 2017-08-06)"
   sodipodi:docname="producer.svg">
  <defs
     id="defs1013" />
  <sodipodi:namedview
     id="base"
     pagecolor="#ffffff"
     bordercolor="#666666"
     borderopacity="1.0"
     inkscape:pageopacity="0.0"
     inkscape:pageshadow="2"
     inkscape:zoom="0.35"
     inkscape:cx="616.27731"
     inkscape:cy="-626.55321"
     inkscape:document-units="mm"
     inkscape:current-layer="layer1"
     showgrid="false"
     fit-margin-top="0"
     fit-margin-left="0"
     fit-margin-right="0"
     fit-margin-bottom="0"
     inkscape:window-width="1920"
     inkscape:window-height="1015"
     inkscape:window-x="0"
     inkscape:window-y="0"
     inkscape:window-maximized="1" />
  <metadata
     id="metadata1016">
    <rdf:RDF>
      <cc:Work
         rdf:about="">
        <dc:format>image/svg+xml</dc:format>
        <dc:type
           rdf:resource="http://purl.org/dc/dcmitype/StillImage" />
        <dc:title></dc:title>
      </cc:Work>
    </rdf:RDF>
  </metadata>
  <g
     inkscape:label="Calque 1"
     inkscape:groupmode="layer"
     id="layer1"
     transform="translate(192.91682,43.712559)">
    <g
       id="g1135"
       transform="matrix(0.06636158,0,0,0.06704926,-196.94436,-43.712559)"
       style="fill:#550000;stroke-width:3.96649718">
      <g
         id="g1073"
         style="fill:#550000;stroke-width:3.96649718">
        <g
           id="Layer_5_81_"
           style="fill:#550000;stroke-width:3.96649718">
          <g
             id="g1070"
             style="fill:#550000;stroke-width:3.96649718">
            <g
               id="g1066"
               style="fill:#550000;stroke-width:3.96649718">
              <g
                 id="g1062"
                 style="fill:#550000;stroke-width:3.96649718">
                <ellipse
                   id="ellipse1060"
                   ry="50.966"
                   rx="51.495998"
                   cy="50.966"
                   cx="199.632"
                   style="fill:#550000;stroke-width:3.96649718" />
              </g>
              <path
                 id="path1064"
                 d="m 298.384,226.932 -34.335,-90.755 c -0.873,-2.302 -8.259,-17.506 -21.973,-17.506 -4.337,0 -79.572,0.113 -82.034,0.113 0,0 -0.401,0 -2.843,0 -15.351,0 -21.098,15.091 -21.968,17.393 l -34.337,90.755 c -0.872,2.303 -0.366,5.162 4.466,5.162 0,0 18.534,0 25.338,0 4.617,0 6.054,-4.041 6.054,-4.041 l 16.371,-43.924 c 0,0 2.058,-5.624 2.058,0.477 0,8.385 0.109,30.787 0.164,41.552 0.018,3.63 0.581,5.937 4.868,5.937 22.206,0 62.7,0 83.6,0 5.936,0 5.212,-3.09 5.199,-7.75 -0.032,-11.362 -0.087,-32.06 -0.087,-40.069 0,-4.121 1.46,-1.309 1.46,-1.309 l 15.376,44.401 c 0,0 1.466,4.727 6.908,4.727 5.783,0 20.996,0 20.996,0 4.994,-0.001 5.593,-2.861 4.719,-5.163 z m -78.534,-26.029 -17.278,15.891 c -1.616,1.485 -4.262,1.485 -5.878,0 l -17.279,-15.891 c -1.618,-1.485 -2.571,-4.46 -2.122,-6.608 l 9.01,-43.026 c 0.135,-0.642 0.542,-2.59 0.507,-3.031 -0.177,-2.269 -0.708,-9.073 -0.708,-9.073 -0.172,-2.189 1.485,-3.981 3.681,-3.981 h 19.698 c 2.196,0 3.852,1.792 3.681,3.981 0,0 -0.531,6.805 -0.708,9.073 -0.034,0.441 0.374,2.39 0.508,3.031 l 9.009,43.026 c 0.451,2.149 -0.504,5.123 -2.121,6.608 z"
                 inkscape:connector-curvature="0"
                 style="fill:#550000;stroke-width:3.96649718" />
            </g>
            <path
               id="path1068"
               d="m 337.533,268.398 c 3.409,-9.203 -1.832,-16.733 -11.646,-16.733 H 73.378 c -9.814,0 -15.055,7.53 -11.646,16.733 l 8.598,23.213 c 3.409,9.203 10.328,16.733 15.376,16.733 5.048,0 10.668,7.891 12.488,17.535 l 10.543,55.85 c 1.82,9.645 11.34,17.535 21.154,17.535 h 139.483 c 9.814,0 19.334,-7.891 21.154,-17.535 l 10.542,-55.85 c 1.82,-9.645 7.44,-17.535 12.488,-17.535 5.048,0 11.968,-7.53 15.376,-16.733 z"
               inkscape:connector-curvature="0"
               style="fill:#550000;stroke-width:3.96649718" />
          </g>
        </g>
      </g>
      <g
         id="g1075"
         style="fill:#550000;stroke-width:3.96649718" />
      <g
         id="g1077"
         style="fill:#550000;stroke-width:3.96649718" />
      <g
         id="g1079"
         style="fill:#550000;stroke-width:3.96649718" />
      <g
         id="g1081"
         style="fill:#550000;stroke-width:3.96649718" />
      <g
         id="g1083"
         style="fill:#550000;stroke-width:3.96649718" />
      <g
         id="g1085"
         style="fill:#550000;stroke-width:3.96649718" />
      <g
         id="g1087"
         style="fill:#550000;stroke-width:3.96649718" />
      <g
         id="g1089"
         style="fill:#550000;stroke-width:3.96649718" />
      <g
         id="g1091"
         style="fill:#550000;stroke-width:3.96649718" />
      <g
         id="g1093"
         style="fill:#550000;stroke-width:3.96649718" />
      <g
         id="g1095"
         style="fill:#550000;stroke-width:3.96649718" />
      <g
         id="g1097"
         style="fill:#550000;stroke-width:3.96649718" />
      <g
         id="g1099"
         style="fill:#550000;stroke-width:3.96649718" />
      <g
         id="g1101"
         style="fill:#550000;stroke-width:3.96649718" />
      <g
         id="g1103"
         style="fill:#550000;stroke-width:3.96649718" />
    </g>
  </g>
</svg>
